<?xml version="1.0" encoding="utf-8"?>
<!-- Generator: Adobe Illustrator 28.1.0, SVG Export Plug-In . SVG Version: 6.00 Build 0)  -->
<svg version="1.1" xmlns="http://www.w3.org/2000/svg" xmlns:xlink="http://www.w3.org/1999/xlink" x="0px" y="0px"
	 viewBox="0 0 841.89 595.28" style="enable-background:new 0 0 841.89 595.28;" xml:space="preserve">
<style type="text/css">
	.st0{fill:#2E54CB;}
	.st1{fill:#CCFFB0;}
	.st2{fill:#A6A6FF;}
</style>
<g id="Background">
	<rect x="-861.89" y="-615.28" class="st0" width="841.89" height="595.28"/>
	<rect class="st0" width="841.89" height="595.28"/>
	<rect y="-615.28" class="st1" width="841.89" height="595.28"/>
	<rect x="-861.89" class="st2" width="841.89" height="595.28"/>
</g>
<g id="Logo">
	<g>
		<path class="st1" d="M276.67,260.85c5.48-3.68,9.58,8.9,18.89,9.44c9.45-1.63,24.14-26.74-9.5-35.08
			c-26.84-6.66-32.24,3.03-32.74,10.63c-0.01,0.07-0.01,0.15-0.02,0.22c-0.22,4,0.9,7.36,0.9,7.36l0.03,0.02
			c1.99,10.61,6.18,28.63,6.05,35.57c2.32,56.18-21.68,40.62-35.02,17.97c-1.91-3.24-3.7-5.78-5.42-7.72
			c6.59-3.66,15.41-10.09,14.95-18.15c-0.73-12.79-38.61-9.74-43.85-2.19c-2.76,3.98-2.1,10.7,13.61,19.49
			c-1.25,1.2-2.52,2.65-3.86,4.41c-44.13,57.96-45.53-4.01-28.78-44.07l0,0c0,0,26.07-48.19-28.34-31.32
			c-27.68,8.58-27.78,27.48-14.54,37.86c2.25,1.76,5.48,1.46,7.39-0.66c3.57-3.95,9.17-9.4,14.62-9.12
			c-12.62,22.74-14.49,67.22-8.77,77.87c9.79,27.65,40.48,29.84,53.09,8.04c7.67-11.31,11.16-29.24,17.54-17.1
			c27.57,61.93,77.2,24,68.61-33.33C281.1,285.02,279.57,272.37,276.67,260.85z"/>
		<path class="st1" d="M358,309.36c-0.32-3.46-0.72-6.72-1.21-9.78c-0.49-3.05-0.97-5.66-1.41-7.82c-1.62-8.18-4.3-14.52-8.02-19.01
			c-3.73-4.49-8.07-7.28-13.01-8.36c-4.94-1.08-10.22-0.5-15.84,1.75c-5.62,2.25-11.17,6.11-16.65,11.59
			c-1.26,1.26-2.54,2.74-3.84,4.45c-1.3,1.71-2.27,3.51-2.9,5.39c-0.63,1.89-0.76,3.71-0.4,5.46c0.36,1.75,1.53,3.26,3.51,4.52
			c3.05,1.98,6.29,1.89,9.71-0.27c0.63-0.45,1.21-0.92,1.75-1.42c0.54-0.49,1.08-1.01,1.62-1.55c1.71-2.52,3.66-4.43,5.86-5.73
			c2.2-1.3,4.29-1.84,6.27-1.62c1.98,0.23,3.68,1.37,5.12,3.44c1.44,2.07,2.29,5.21,2.56,9.44c-2.97-0.09-5.91-0.2-8.83-0.34
			c-2.92-0.14-5.8-0.07-8.63,0.2c-2.83,0.27-5.57,0.77-8.22,1.49c-2.65,0.72-5.24,1.84-7.75,3.37c-4.23,2.79-7.26,6.11-9.1,9.98
			c-1.84,3.86-2.41,8.36-1.69,13.48c0.45,2.96,1.42,5.75,2.9,8.36c1.48,2.61,3.37,4.9,5.66,6.88c2.29,1.98,4.9,3.59,7.82,4.85
			c2.92,1.26,6,2.02,9.24,2.29c4.85,0.45,9.6,0.27,14.22-0.54c4.63-0.81,9.24-2.11,13.82-3.91c0.36,0.18,0.67,0.32,0.94,0.41
			c0.27,0.09,0.49,0.22,0.67,0.4c2.16,1.89,4.38,2.63,6.67,2.23c2.29-0.4,4.16-1.46,5.6-3.17c1.26-1.62,2.22-3.77,2.9-6.47
			c0.67-2.7,1.12-5.68,1.35-8.97c0.22-3.28,0.25-6.74,0.07-10.38C358.56,316.37,358.31,312.82,358,309.36z M328,329.24
			c-1.89,0.45-3.64,0.72-5.26,0.81c-3.32,0.18-5.73-0.2-7.21-1.15c-1.48-0.94-2.2-2.02-2.16-3.23c0.04-1.21,0.81-2.41,2.29-3.58
			c1.48-1.17,3.53-1.89,6.14-2.16c1.89-0.27,3.77-0.2,5.66,0.2c1.89,0.4,3.86,1.01,5.93,1.82c0.18,0.99,0.34,1.93,0.47,2.83
			c0.13,0.9,0.29,1.75,0.47,2.56C332,328.16,329.89,328.79,328,329.24z"/>
		<path class="st1" d="M448.4,280.57c-0.63-4.85-1.26-9.75-1.89-14.7c-0.18-1.8-0.74-3.39-1.68-4.79c-0.94-1.39-2.5-2.31-4.65-2.77
			c-2.25-0.27-4.34,0-6.27,0.81c-1.93,0.81-3.44,2.11-4.52,3.91c-0.27,0.72-0.54,1.44-0.81,2.16c-0.27,0.72-0.63,1.58-1.08,2.56
			c-5.3-12.58-14.47-17.26-27.5-14.02c-5.57,1.44-10.43,3.91-14.56,7.42c-10.88,8.81-17.8,20.18-20.76,34.11
			c-0.72,3.5-0.97,7.03-0.74,10.58c0.22,3.55,1.23,7.03,3.03,10.45c1.26,2.61,2.83,4.76,4.72,6.47c1.89,1.71,3.95,2.96,6.2,3.77
			c2.25,0.81,4.63,1.1,7.15,0.88c2.52-0.22,5.08-1.01,7.68-2.36c2.43-1.08,4.97-2.79,7.62-5.12c2.65-2.34,5.26-4.87,7.82-7.62
			c2.56-2.74,5.01-5.46,7.35-8.16c2.34-2.7,4.4-4.94,6.2-6.74c0.45-0.54,0.96-1.1,1.55-1.68c0.58-0.59,1.37-1.37,2.36-2.36
			c0.36,4.41,0.09,8.92-0.81,13.55c-0.9,4.63-2.34,9.06-4.31,13.28c-1.98,4.22-4.43,8.11-7.35,11.66c-2.92,3.55-6.23,6.43-9.91,8.63
			c-3.69,2.21-7.66,3.55-11.93,4.04c-4.27,0.5-8.74-0.11-13.41-1.82c-1.71-0.72-3.4-0.97-5.06-0.74c-1.66,0.22-3.22,1.1-4.65,2.63
			c-1.35,1.44-2.18,3.05-2.49,4.85c-0.32,1.8,0.02,3.59,1.01,5.39c1.62,2.7,3.68,4.97,6.2,6.81c2.52,1.84,5.33,3.31,8.43,4.38
			c3.1,1.08,6.4,1.78,9.91,2.09c3.5,0.31,7.01,0.34,10.52,0.07c6.65-0.54,12.49-1.94,17.53-4.18c5.03-2.25,9.35-5.15,12.94-8.7
			c3.59-3.55,6.56-7.64,8.9-12.27c2.34-4.63,4.16-9.55,5.46-14.76c1.3-5.21,2.18-10.63,2.63-16.25c0.45-5.61,0.58-11.17,0.4-16.65
			C449.44,290.37,449.03,285.43,448.4,280.57z M411.19,284.75c-2.16,2.07-4.36,4.12-6.61,6.14c-2.25,2.02-4.54,3.93-6.88,5.73
			c-1.89,1.53-3.62,2.74-5.19,3.64c-1.57,0.9-2.77,1.28-3.57,1.15c-0.81-0.13-1.1-0.94-0.88-2.43c0.22-1.48,1.28-3.85,3.17-7.08
			c1.53-2.61,3.37-5.17,5.53-7.69c2.16-2.52,4.27-4.54,6.34-6.07c1.62-1.17,3.19-1.69,4.72-1.55c1.53,0.13,2.74,0.61,3.64,1.42
			s1.37,1.87,1.42,3.17S412.36,283.67,411.19,284.75z"/>
		<path class="st1" d="M539.68,280.57c-0.63-4.85-1.26-9.75-1.89-14.7c-0.18-1.8-0.74-3.39-1.68-4.79c-0.94-1.39-2.5-2.31-4.65-2.77
			c-2.25-0.27-4.34,0-6.27,0.81c-1.93,0.81-3.44,2.11-4.52,3.91c-0.27,0.72-0.54,1.44-0.81,2.16c-0.27,0.72-0.63,1.58-1.08,2.56
			c-5.3-12.58-14.47-17.26-27.5-14.02c-5.57,1.44-10.43,3.91-14.56,7.42c-10.88,8.81-17.8,20.18-20.76,34.11
			c-0.72,3.5-0.97,7.03-0.74,10.58c0.22,3.55,1.23,7.03,3.03,10.45c1.26,2.61,2.83,4.76,4.72,6.47c1.89,1.71,3.95,2.96,6.2,3.77
			c2.25,0.81,4.63,1.1,7.15,0.88c2.52-0.22,5.08-1.01,7.68-2.36c2.43-1.08,4.97-2.79,7.62-5.12c2.65-2.34,5.26-4.87,7.82-7.62
			c2.56-2.74,5.01-5.46,7.35-8.16c2.34-2.7,4.4-4.94,6.2-6.74c0.45-0.54,0.96-1.1,1.55-1.68c0.58-0.59,1.37-1.37,2.36-2.36
			c0.36,4.41,0.09,8.92-0.81,13.55c-0.9,4.63-2.34,9.06-4.31,13.28c-1.98,4.22-4.43,8.11-7.35,11.66c-2.92,3.55-6.23,6.43-9.91,8.63
			c-3.69,2.21-7.66,3.55-11.93,4.04c-4.27,0.5-8.74-0.11-13.41-1.82c-1.71-0.72-3.4-0.97-5.06-0.74c-1.66,0.22-3.22,1.1-4.65,2.63
			c-1.35,1.44-2.18,3.05-2.49,4.85c-0.32,1.8,0.02,3.59,1.01,5.39c1.62,2.7,3.68,4.97,6.2,6.81c2.52,1.84,5.33,3.31,8.43,4.38
			c3.1,1.08,6.4,1.78,9.91,2.09c3.5,0.31,7.01,0.34,10.52,0.07c6.65-0.54,12.49-1.94,17.53-4.18c5.03-2.25,9.35-5.15,12.94-8.7
			c3.59-3.55,6.56-7.64,8.9-12.27c2.34-4.63,4.16-9.55,5.46-14.76c1.3-5.21,2.18-10.63,2.63-16.25c0.45-5.61,0.58-11.17,0.4-16.65
			C540.71,290.37,540.31,285.43,539.68,280.57z M502.47,284.75c-2.16,2.07-4.36,4.12-6.61,6.14c-2.25,2.02-4.54,3.93-6.88,5.73
			c-1.89,1.53-3.62,2.74-5.19,3.64c-1.57,0.9-2.77,1.28-3.57,1.15c-0.81-0.13-1.1-0.94-0.88-2.43c0.22-1.48,1.28-3.85,3.17-7.08
			c1.53-2.61,3.37-5.17,5.53-7.69c2.16-2.52,4.27-4.54,6.34-6.07c1.62-1.17,3.19-1.69,4.72-1.55c1.53,0.13,2.74,0.61,3.64,1.42
			s1.37,1.87,1.42,3.17C504.2,282.48,503.64,283.67,502.47,284.75z"/>
		<path class="st1" d="M570.29,235.27c-2.7-0.27-5.44,0.38-8.23,1.96c-2.79,1.57-4.9,4.02-6.34,7.35c-0.9,1.89-1.71,4.76-2.43,8.63
			c-0.72,3.86-1.37,8.29-1.95,13.28c-0.59,4.99-1.03,10.38-1.35,16.18c-0.31,5.8-0.47,11.59-0.47,17.39c0,5.8,0.2,11.39,0.61,16.78
			c0.4,5.39,1.01,10.25,1.82,14.56c0.36,1.89,0.81,3.93,1.35,6.13c0.54,2.2,1.33,4.22,2.36,6.07c1.03,1.84,2.31,3.37,3.84,4.58
			c1.53,1.21,3.51,1.73,5.93,1.55c2.7-0.09,4.81-0.88,6.34-2.36c1.53-1.48,2.7-3.3,3.5-5.46c0.81-2.16,1.33-4.47,1.55-6.94
			c0.22-2.47,0.29-4.65,0.2-6.54c-0.45-12.67-0.31-25.73,0.4-39.17c0.72-13.44,1.71-27.12,2.97-41.06c0-4.13-1.01-7.26-3.03-9.37
			C575.34,236.73,572.98,235.54,570.29,235.27z"/>
		<path class="st1" d="M618.11,328.25c12.28-15.3,25.57-30.32,38.23-45.43c11.22-12.82,1.74-24.4-13.65-19.91
			c-17.49,3.79-29.66,7.85-47.49,7.22c-8.91,0.48-12.24,10.16-7.18,16.87c10.06,13.31,33.93,5.27,43.53,3.28
			c-13.97,14.09-21.42,20.27-33.7,31.71c-14.46,13.46-14.07,30.84,1.76,30.5c17.03-1.56,21.65-21.24,66.94-8.17
			c6.8,1.96,14.87-0.23,18.13-6.67c2.45-4.36,1.42-9.97-1.68-14.56C668.11,301.06,630.49,323.16,618.11,328.25z"/>
		<path class="st1" d="M194.06,265.12c5.7-7.41-1.09-19.67-8.37-12.84S188.52,272.31,194.06,265.12z"/>
		<path class="st1" d="M241.61,269.85c8.7-3.41,9.19-17.43-0.57-15.32C231.28,256.65,233.17,273.17,241.61,269.85z"/>
		<path class="st1" d="M688.68,295.84c-9.1-4.99-20.38-3.52-24.42-2.03c-3.13,1.16-4.75,2.93-4.8,5.29
			c-0.06,2.51,1.8,4.19,3.57,4.93c0.91,0.38,1.94,0.41,2.87,0.06c14.73-5.52,19.27,2.4,23.68,10.06c0.71,1.23,1.37,2.38,2.03,3.38
			c0,0,0,0,0,0c0.96,1.46,2.7,2.74,4.67,2.74c0.37,0,0.76-0.05,1.14-0.15c1.28-0.33,3.48-1.47,3.8-5.44
			c0.03-0.38,0.01-0.77-0.08-1.14C699.35,305.34,695.16,299.39,688.68,295.84z"/>
		<path class="st1" d="M721.35,305.77c-2.58-11.34-9.15-20.17-19.01-25.53c-10.4-5.65-22.88-6.31-27.54-4.6
			c-3.42,1.25-5.2,3.15-5.29,5.63c-0.09,2.65,1.89,4.5,3.78,5.35c0.93,0.42,1.99,0.45,2.95,0.1c17.04-6.36,25,5.13,32.29,18.52
			c0.99,1.82,1.85,3.39,2.69,4.73c0,0,0,0,0,0c1.01,1.6,2.95,3.08,5.1,3.08c0.38,0,0.77-0.05,1.16-0.15
			c1.66-0.43,3.7-1.82,3.96-6.03C721.46,306.5,721.43,306.13,721.35,305.77z"/>
	</g>
	<g>
		<path class="st2" d="M-585.22-354.43c5.48-3.68,9.58,8.9,18.89,9.44c9.45-1.63,24.14-26.74-9.5-35.08
			c-26.84-6.66-32.24,3.03-32.74,10.63c-0.01,0.07-0.01,0.15-0.02,0.22c-0.22,4,0.9,7.36,0.9,7.36l0.03,0.02
			c1.99,10.61,6.18,28.63,6.05,35.57c2.32,56.18-21.68,40.62-35.02,17.97c-1.91-3.24-3.7-5.78-5.42-7.72
			c6.59-3.66,15.41-10.09,14.95-18.15c-0.73-12.79-38.61-9.74-43.85-2.19c-2.76,3.98-2.1,10.7,13.61,19.49
			c-1.25,1.2-2.52,2.65-3.86,4.41c-44.13,57.96-45.53-4.01-28.78-44.07l0,0c0,0,26.07-48.19-28.34-31.32
			c-27.68,8.58-27.78,27.48-14.54,37.86c2.25,1.76,5.48,1.46,7.39-0.66c3.57-3.95,9.17-9.4,14.62-9.12
			c-12.62,22.74-14.49,67.22-8.77,77.87c9.79,27.65,40.48,29.84,53.09,8.04c7.67-11.31,11.16-29.24,17.54-17.1
			c27.57,61.93,77.2,24,68.61-33.33C-580.79-330.26-582.32-342.9-585.22-354.43z"/>
		<path class="st2" d="M-503.89-305.92c-0.32-3.46-0.72-6.72-1.21-9.78c-0.49-3.05-0.97-5.66-1.41-7.82
			c-1.62-8.18-4.3-14.52-8.02-19.01c-3.73-4.49-8.07-7.28-13.01-8.36c-4.94-1.08-10.22-0.5-15.84,1.75
			c-5.62,2.25-11.17,6.11-16.65,11.59c-1.26,1.26-2.54,2.74-3.84,4.45c-1.3,1.71-2.27,3.51-2.9,5.39c-0.63,1.89-0.76,3.71-0.4,5.46
			c0.36,1.75,1.53,3.26,3.51,4.52c3.05,1.98,6.29,1.89,9.71-0.27c0.63-0.45,1.21-0.92,1.75-1.42c0.54-0.49,1.08-1.01,1.62-1.55
			c1.71-2.52,3.66-4.43,5.86-5.73c2.2-1.3,4.29-1.84,6.27-1.62c1.98,0.23,3.68,1.37,5.12,3.44c1.44,2.07,2.29,5.21,2.56,9.44
			c-2.97-0.09-5.91-0.2-8.83-0.34c-2.92-0.14-5.8-0.07-8.63,0.2c-2.83,0.27-5.57,0.77-8.22,1.49c-2.65,0.72-5.24,1.84-7.75,3.37
			c-4.23,2.79-7.26,6.11-9.1,9.98c-1.84,3.86-2.41,8.36-1.69,13.48c0.45,2.96,1.42,5.75,2.9,8.36c1.48,2.61,3.37,4.9,5.66,6.88
			c2.29,1.98,4.9,3.59,7.82,4.85c2.92,1.26,6,2.02,9.24,2.29c4.85,0.45,9.6,0.27,14.22-0.54c4.63-0.81,9.24-2.11,13.82-3.91
			c0.36,0.18,0.67,0.32,0.94,0.41c0.27,0.09,0.49,0.22,0.67,0.4c2.16,1.89,4.38,2.63,6.67,2.23c2.29-0.4,4.16-1.46,5.6-3.17
			c1.26-1.62,2.22-3.77,2.9-6.47c0.67-2.7,1.12-5.68,1.35-8.97c0.22-3.28,0.25-6.74,0.07-10.38
			C-503.33-298.91-503.57-302.46-503.89-305.92z M-533.89-286.03c-1.89,0.45-3.64,0.72-5.26,0.81c-3.32,0.18-5.73-0.2-7.21-1.15
			c-1.48-0.94-2.2-2.02-2.16-3.23c0.04-1.21,0.81-2.41,2.29-3.58c1.48-1.17,3.53-1.89,6.14-2.16c1.89-0.27,3.77-0.2,5.66,0.2
			c1.89,0.4,3.86,1.01,5.93,1.82c0.18,0.99,0.34,1.93,0.47,2.83c0.13,0.9,0.29,1.75,0.47,2.56
			C-529.89-287.11-532-286.48-533.89-286.03z"/>
		<path class="st2" d="M-413.49-334.7c-0.63-4.85-1.26-9.75-1.89-14.7c-0.18-1.8-0.74-3.39-1.68-4.79c-0.94-1.39-2.5-2.31-4.65-2.77
			c-2.25-0.27-4.34,0-6.27,0.81c-1.93,0.81-3.44,2.11-4.52,3.91c-0.27,0.72-0.54,1.44-0.81,2.16c-0.27,0.72-0.63,1.58-1.08,2.56
			c-5.3-12.58-14.47-17.26-27.5-14.02c-5.57,1.44-10.43,3.91-14.56,7.42c-10.88,8.81-17.8,20.18-20.76,34.11
			c-0.72,3.5-0.97,7.03-0.74,10.58c0.22,3.55,1.23,7.03,3.03,10.45c1.26,2.61,2.83,4.76,4.72,6.47c1.89,1.71,3.95,2.96,6.2,3.77
			c2.25,0.81,4.63,1.1,7.15,0.88c2.52-0.22,5.08-1.01,7.68-2.36c2.43-1.08,4.97-2.79,7.62-5.12c2.65-2.34,5.26-4.87,7.82-7.62
			c2.56-2.74,5.01-5.46,7.35-8.16c2.34-2.7,4.4-4.94,6.2-6.74c0.45-0.54,0.96-1.1,1.55-1.68c0.58-0.59,1.37-1.37,2.36-2.36
			c0.36,4.41,0.09,8.92-0.81,13.55c-0.9,4.63-2.34,9.06-4.31,13.28c-1.98,4.22-4.43,8.11-7.35,11.66c-2.92,3.55-6.23,6.43-9.91,8.63
			c-3.69,2.21-7.66,3.55-11.93,4.04c-4.27,0.5-8.74-0.11-13.41-1.82c-1.71-0.72-3.4-0.97-5.06-0.74c-1.66,0.22-3.22,1.1-4.65,2.63
			c-1.35,1.44-2.18,3.05-2.49,4.85c-0.32,1.8,0.02,3.59,1.01,5.39c1.62,2.7,3.68,4.97,6.2,6.81c2.52,1.84,5.33,3.31,8.43,4.38
			c3.1,1.08,6.4,1.78,9.91,2.09c3.5,0.31,7.01,0.34,10.52,0.07c6.65-0.54,12.49-1.94,17.53-4.18c5.03-2.25,9.35-5.15,12.94-8.7
			c3.59-3.55,6.56-7.64,8.9-12.27c2.34-4.63,4.16-9.55,5.46-14.76c1.3-5.21,2.18-10.63,2.63-16.25c0.45-5.61,0.58-11.17,0.4-16.65
			C-412.45-324.9-412.86-329.85-413.49-334.7z M-450.7-330.53c-2.16,2.07-4.36,4.12-6.61,6.14c-2.25,2.02-4.54,3.93-6.88,5.73
			c-1.89,1.53-3.62,2.74-5.19,3.64c-1.57,0.9-2.77,1.28-3.57,1.15c-0.81-0.13-1.1-0.94-0.88-2.43c0.22-1.48,1.28-3.85,3.17-7.08
			c1.53-2.61,3.37-5.17,5.53-7.69c2.16-2.52,4.27-4.54,6.34-6.07c1.62-1.17,3.19-1.69,4.72-1.55c1.53,0.13,2.74,0.61,3.64,1.42
			s1.37,1.87,1.42,3.17S-449.53-331.6-450.7-330.53z"/>
		<path class="st2" d="M-322.21-334.7c-0.63-4.85-1.26-9.75-1.89-14.7c-0.18-1.8-0.74-3.39-1.68-4.79c-0.94-1.39-2.5-2.31-4.65-2.77
			c-2.25-0.27-4.34,0-6.27,0.81c-1.93,0.81-3.44,2.11-4.52,3.91c-0.27,0.72-0.54,1.44-0.81,2.16c-0.27,0.72-0.63,1.58-1.08,2.56
			c-5.3-12.58-14.47-17.26-27.5-14.02c-5.57,1.44-10.43,3.91-14.56,7.42c-10.88,8.81-17.8,20.18-20.76,34.11
			c-0.72,3.5-0.97,7.03-0.74,10.58c0.22,3.55,1.23,7.03,3.03,10.45c1.26,2.61,2.83,4.76,4.72,6.47c1.89,1.71,3.95,2.96,6.2,3.77
			c2.25,0.81,4.63,1.1,7.15,0.88c2.52-0.22,5.08-1.01,7.68-2.36c2.43-1.08,4.97-2.79,7.62-5.12c2.65-2.34,5.26-4.87,7.82-7.62
			c2.56-2.74,5.01-5.46,7.35-8.16c2.34-2.7,4.4-4.94,6.2-6.74c0.45-0.54,0.96-1.1,1.55-1.68c0.58-0.59,1.37-1.37,2.36-2.36
			c0.36,4.41,0.09,8.92-0.81,13.55c-0.9,4.63-2.34,9.06-4.31,13.28c-1.98,4.22-4.43,8.11-7.35,11.66c-2.92,3.55-6.23,6.43-9.91,8.63
			c-3.69,2.21-7.66,3.55-11.93,4.04c-4.27,0.5-8.74-0.11-13.41-1.82c-1.71-0.72-3.4-0.97-5.06-0.74c-1.66,0.22-3.22,1.1-4.65,2.63
			c-1.35,1.44-2.18,3.05-2.49,4.85c-0.32,1.8,0.02,3.59,1.01,5.39c1.62,2.7,3.68,4.97,6.2,6.81c2.52,1.84,5.33,3.31,8.43,4.38
			c3.1,1.08,6.4,1.78,9.91,2.09c3.5,0.31,7.01,0.34,10.52,0.07c6.65-0.54,12.49-1.94,17.53-4.18c5.03-2.25,9.35-5.15,12.94-8.7
			c3.59-3.55,6.56-7.64,8.9-12.27c2.34-4.63,4.16-9.55,5.46-14.76c1.3-5.21,2.18-10.63,2.63-16.25c0.45-5.61,0.58-11.17,0.4-16.65
			C-321.18-324.9-321.58-329.85-322.21-334.7z M-359.42-330.53c-2.16,2.07-4.36,4.12-6.61,6.14c-2.25,2.02-4.54,3.93-6.88,5.73
			c-1.89,1.53-3.62,2.74-5.19,3.64c-1.57,0.9-2.77,1.28-3.57,1.15c-0.81-0.13-1.1-0.94-0.88-2.43c0.22-1.48,1.28-3.85,3.17-7.08
			c1.53-2.61,3.37-5.17,5.53-7.69c2.16-2.52,4.27-4.54,6.34-6.07c1.62-1.17,3.19-1.69,4.72-1.55c1.53,0.13,2.74,0.61,3.64,1.42
			s1.37,1.87,1.42,3.17C-357.69-332.79-358.25-331.6-359.42-330.53z"/>
		<path class="st2" d="M-291.6-380.01c-2.7-0.27-5.44,0.38-8.23,1.96c-2.79,1.57-4.9,4.02-6.34,7.35c-0.9,1.89-1.71,4.76-2.43,8.63
			c-0.72,3.86-1.37,8.29-1.95,13.28c-0.59,4.99-1.03,10.38-1.35,16.18c-0.31,5.8-0.47,11.59-0.47,17.39c0,5.8,0.2,11.39,0.61,16.78
			c0.4,5.39,1.01,10.25,1.82,14.56c0.36,1.89,0.81,3.93,1.35,6.13c0.54,2.2,1.33,4.22,2.36,6.07c1.03,1.84,2.31,3.37,3.84,4.58
			c1.53,1.21,3.51,1.73,5.93,1.55c2.7-0.09,4.81-0.88,6.34-2.36c1.53-1.48,2.7-3.3,3.5-5.46c0.81-2.16,1.33-4.47,1.55-6.94
			c0.22-2.47,0.29-4.65,0.2-6.54c-0.45-12.67-0.31-25.73,0.4-39.17c0.72-13.44,1.71-27.12,2.97-41.06c0-4.13-1.01-7.26-3.03-9.37
			C-286.55-378.54-288.91-379.74-291.6-380.01z"/>
		<path class="st2" d="M-243.78-287.02c12.28-15.3,25.57-30.32,38.23-45.43c11.22-12.82,1.74-24.4-13.65-19.91
			c-17.49,3.79-29.66,7.85-47.49,7.22c-8.91,0.48-12.24,10.16-7.18,16.87c10.06,13.31,33.93,5.27,43.53,3.28
			c-13.97,14.09-21.42,20.27-33.7,31.71c-14.46,13.46-14.07,30.84,1.76,30.5c17.03-1.56,21.65-21.24,66.94-8.17
			c6.8,1.96,14.87-0.23,18.13-6.67c2.45-4.36,1.42-9.97-1.68-14.56C-193.78-314.21-231.4-292.11-243.78-287.02z"/>
		<path class="st2" d="M-667.83-350.16c5.7-7.41-1.09-19.67-8.37-12.84S-673.37-342.97-667.83-350.16z"/>
		<path class="st2" d="M-620.28-345.42c8.7-3.41,9.19-17.43-0.57-15.32C-630.61-358.63-628.72-342.11-620.28-345.42z"/>
		<path class="st2" d="M-173.21-319.44c-9.1-4.99-20.38-3.52-24.42-2.03c-3.13,1.16-4.75,2.93-4.8,5.29
			c-0.06,2.51,1.8,4.19,3.57,4.93c0.91,0.38,1.94,0.41,2.87,0.06c14.73-5.52,19.27,2.4,23.68,10.06c0.71,1.23,1.37,2.38,2.03,3.38
			c0,0,0,0,0,0c0.96,1.46,2.7,2.74,4.67,2.74c0.37,0,0.76-0.05,1.14-0.15c1.28-0.33,3.48-1.47,3.8-5.44
			c0.03-0.38,0.01-0.77-0.08-1.14C-162.54-309.94-166.73-315.89-173.21-319.44z"/>
		<path class="st2" d="M-140.54-309.5c-2.58-11.34-9.15-20.17-19.01-25.53c-10.4-5.65-22.88-6.31-27.54-4.6
			c-3.42,1.25-5.2,3.15-5.29,5.63c-0.09,2.65,1.89,4.5,3.78,5.35c0.93,0.42,1.99,0.45,2.95,0.1c17.04-6.36,25,5.13,32.29,18.52
			c0.99,1.82,1.85,3.39,2.69,4.73c0,0,0,0,0,0c1.01,1.6,2.95,3.08,5.1,3.08c0.38,0,0.77-0.05,1.16-0.15
			c1.66-0.43,3.7-1.82,3.96-6.03C-140.43-308.77-140.46-309.14-140.54-309.5z"/>
	</g>
	<g>
		<path class="st0" d="M276.67-354.43c5.48-3.68,9.58,8.9,18.89,9.44c9.45-1.63,24.14-26.74-9.5-35.08
			c-26.84-6.66-32.24,3.03-32.74,10.63c-0.01,0.07-0.01,0.15-0.02,0.22c-0.22,4,0.9,7.36,0.9,7.36l0.03,0.02
			c1.99,10.61,6.18,28.63,6.05,35.57c2.32,56.18-21.68,40.62-35.02,17.97c-1.91-3.24-3.7-5.78-5.42-7.72
			c6.59-3.66,15.41-10.09,14.95-18.15c-0.73-12.79-38.61-9.74-43.85-2.19c-2.76,3.98-2.1,10.7,13.61,19.49
			c-1.25,1.2-2.52,2.65-3.86,4.41c-44.13,57.96-45.53-4.01-28.78-44.07l0,0c0,0,26.07-48.19-28.34-31.32
			c-27.68,8.58-27.78,27.48-14.54,37.86c2.25,1.76,5.48,1.46,7.39-0.66c3.57-3.95,9.17-9.4,14.62-9.12
			c-12.62,22.74-14.49,67.22-8.77,77.87c9.79,27.65,40.48,29.84,53.09,8.04c7.67-11.31,11.16-29.24,17.54-17.1
			c27.57,61.93,77.2,24,68.61-33.33C281.1-330.26,279.57-342.9,276.67-354.43z"/>
		<path class="st0" d="M358-305.92c-0.32-3.46-0.72-6.72-1.21-9.78c-0.49-3.05-0.97-5.66-1.41-7.82c-1.62-8.18-4.3-14.52-8.02-19.01
			c-3.73-4.49-8.07-7.28-13.01-8.36c-4.94-1.08-10.22-0.5-15.84,1.75c-5.62,2.25-11.17,6.11-16.65,11.59
			c-1.26,1.26-2.54,2.74-3.84,4.45c-1.3,1.71-2.27,3.51-2.9,5.39c-0.63,1.89-0.76,3.71-0.4,5.46c0.36,1.75,1.53,3.26,3.51,4.52
			c3.05,1.98,6.29,1.89,9.71-0.27c0.63-0.45,1.21-0.92,1.75-1.42c0.54-0.49,1.08-1.01,1.62-1.55c1.71-2.52,3.66-4.43,5.86-5.73
			c2.2-1.3,4.29-1.84,6.27-1.62c1.98,0.23,3.68,1.37,5.12,3.44c1.44,2.07,2.29,5.21,2.56,9.44c-2.97-0.09-5.91-0.2-8.83-0.34
			c-2.92-0.14-5.8-0.07-8.63,0.2c-2.83,0.27-5.57,0.77-8.22,1.49c-2.65,0.72-5.24,1.84-7.75,3.37c-4.23,2.79-7.26,6.11-9.1,9.98
			c-1.84,3.86-2.41,8.36-1.69,13.48c0.45,2.96,1.42,5.75,2.9,8.36c1.48,2.61,3.37,4.9,5.66,6.88c2.29,1.98,4.9,3.59,7.82,4.85
			c2.92,1.26,6,2.02,9.24,2.29c4.85,0.45,9.6,0.27,14.22-0.54c4.63-0.81,9.24-2.11,13.82-3.91c0.36,0.18,0.67,0.32,0.94,0.41
			c0.27,0.09,0.49,0.22,0.67,0.4c2.16,1.89,4.38,2.63,6.67,2.23c2.29-0.4,4.16-1.46,5.6-3.17c1.26-1.62,2.22-3.77,2.9-6.47
			c0.67-2.7,1.12-5.68,1.35-8.97c0.22-3.28,0.25-6.74,0.07-10.38C358.56-298.91,358.31-302.46,358-305.92z M328-286.03
			c-1.89,0.45-3.64,0.72-5.26,0.81c-3.32,0.18-5.73-0.2-7.21-1.15c-1.48-0.94-2.2-2.02-2.16-3.23c0.04-1.21,0.81-2.41,2.29-3.58
			c1.48-1.17,3.53-1.89,6.14-2.16c1.89-0.27,3.77-0.2,5.66,0.2c1.89,0.4,3.86,1.01,5.93,1.82c0.18,0.99,0.34,1.93,0.47,2.83
			c0.13,0.9,0.29,1.75,0.47,2.56C332-287.11,329.89-286.48,328-286.03z"/>
		<path class="st0" d="M448.4-334.7c-0.63-4.85-1.26-9.75-1.89-14.7c-0.18-1.8-0.74-3.39-1.68-4.79c-0.94-1.39-2.5-2.31-4.65-2.77
			c-2.25-0.27-4.34,0-6.27,0.81c-1.93,0.81-3.44,2.11-4.52,3.91c-0.27,0.72-0.54,1.44-0.81,2.16c-0.27,0.72-0.63,1.58-1.08,2.56
			c-5.3-12.58-14.47-17.26-27.5-14.02c-5.57,1.44-10.43,3.91-14.56,7.42c-10.88,8.81-17.8,20.18-20.76,34.11
			c-0.72,3.5-0.97,7.03-0.74,10.58c0.22,3.55,1.23,7.03,3.03,10.45c1.26,2.61,2.83,4.76,4.72,6.47c1.89,1.71,3.95,2.96,6.2,3.77
			c2.25,0.81,4.63,1.1,7.15,0.88c2.52-0.22,5.08-1.01,7.68-2.36c2.43-1.08,4.97-2.79,7.62-5.12c2.65-2.34,5.26-4.87,7.82-7.62
			c2.56-2.74,5.01-5.46,7.35-8.16c2.34-2.7,4.4-4.94,6.2-6.74c0.45-0.54,0.96-1.1,1.55-1.68c0.58-0.59,1.37-1.37,2.36-2.36
			c0.36,4.41,0.09,8.92-0.81,13.55c-0.9,4.63-2.34,9.06-4.31,13.28c-1.98,4.22-4.43,8.11-7.35,11.66c-2.92,3.55-6.23,6.43-9.91,8.63
			c-3.69,2.21-7.66,3.55-11.93,4.04c-4.27,0.5-8.74-0.11-13.41-1.82c-1.71-0.72-3.4-0.97-5.06-0.74c-1.66,0.22-3.22,1.1-4.65,2.63
			c-1.35,1.44-2.18,3.05-2.49,4.85c-0.32,1.8,0.02,3.59,1.01,5.39c1.62,2.7,3.68,4.97,6.2,6.81c2.52,1.84,5.33,3.31,8.43,4.38
			c3.1,1.08,6.4,1.78,9.91,2.09c3.5,0.31,7.01,0.34,10.52,0.07c6.65-0.54,12.49-1.94,17.53-4.18c5.03-2.25,9.35-5.15,12.94-8.7
			c3.59-3.55,6.56-7.64,8.9-12.27c2.34-4.63,4.16-9.55,5.46-14.76c1.3-5.21,2.18-10.63,2.63-16.25c0.45-5.61,0.58-11.17,0.4-16.65
			C449.44-324.9,449.03-329.85,448.4-334.7z M411.19-330.53c-2.16,2.07-4.36,4.12-6.61,6.14c-2.25,2.02-4.54,3.93-6.88,5.73
			c-1.89,1.53-3.62,2.74-5.19,3.64c-1.57,0.9-2.77,1.28-3.57,1.15c-0.81-0.13-1.1-0.94-0.88-2.43c0.22-1.48,1.28-3.85,3.17-7.08
			c1.53-2.61,3.37-5.17,5.53-7.69c2.16-2.52,4.27-4.54,6.34-6.07c1.62-1.17,3.19-1.69,4.72-1.55c1.53,0.13,2.74,0.61,3.64,1.42
			s1.37,1.87,1.42,3.17S412.36-331.6,411.19-330.53z"/>
		<path class="st0" d="M539.68-334.7c-0.63-4.85-1.26-9.75-1.89-14.7c-0.18-1.8-0.74-3.39-1.68-4.79c-0.94-1.39-2.5-2.31-4.65-2.77
			c-2.25-0.27-4.34,0-6.27,0.81c-1.93,0.81-3.44,2.11-4.52,3.91c-0.27,0.72-0.54,1.44-0.81,2.16c-0.27,0.72-0.63,1.58-1.08,2.56
			c-5.3-12.58-14.47-17.26-27.5-14.02c-5.57,1.44-10.43,3.91-14.56,7.42c-10.88,8.81-17.8,20.18-20.76,34.11
			c-0.72,3.5-0.97,7.03-0.74,10.58c0.22,3.55,1.23,7.03,3.03,10.45c1.26,2.61,2.83,4.76,4.72,6.47c1.89,1.71,3.95,2.96,6.2,3.77
			c2.25,0.81,4.63,1.1,7.15,0.88c2.52-0.22,5.08-1.01,7.68-2.36c2.43-1.08,4.97-2.79,7.62-5.12c2.65-2.34,5.26-4.87,7.82-7.62
			c2.56-2.74,5.01-5.46,7.35-8.16c2.34-2.7,4.4-4.94,6.2-6.74c0.45-0.54,0.96-1.1,1.55-1.68c0.58-0.59,1.37-1.37,2.36-2.36
			c0.36,4.41,0.09,8.92-0.81,13.55c-0.9,4.63-2.34,9.06-4.31,13.28c-1.98,4.22-4.43,8.11-7.35,11.66c-2.92,3.55-6.23,6.43-9.91,8.63
			c-3.69,2.21-7.66,3.55-11.93,4.04c-4.27,0.5-8.74-0.11-13.41-1.82c-1.71-0.72-3.4-0.97-5.06-0.74c-1.66,0.22-3.22,1.1-4.65,2.63
			c-1.35,1.44-2.18,3.05-2.49,4.85c-0.32,1.8,0.02,3.59,1.01,5.39c1.62,2.7,3.68,4.97,6.2,6.81c2.52,1.84,5.33,3.31,8.43,4.38
			c3.1,1.08,6.4,1.78,9.91,2.09c3.5,0.31,7.01,0.34,10.52,0.07c6.65-0.54,12.49-1.94,17.53-4.18c5.03-2.25,9.35-5.15,12.94-8.7
			c3.59-3.55,6.56-7.64,8.9-12.27c2.34-4.63,4.16-9.55,5.46-14.76c1.3-5.21,2.18-10.63,2.63-16.25c0.45-5.61,0.58-11.17,0.4-16.65
			C540.71-324.9,540.31-329.85,539.68-334.7z M502.47-330.53c-2.16,2.07-4.36,4.12-6.61,6.14c-2.25,2.02-4.54,3.93-6.88,5.73
			c-1.89,1.53-3.62,2.74-5.19,3.64c-1.57,0.9-2.77,1.28-3.57,1.15c-0.81-0.13-1.1-0.94-0.88-2.43c0.22-1.48,1.28-3.85,3.17-7.08
			c1.53-2.61,3.37-5.17,5.53-7.69c2.16-2.52,4.27-4.54,6.34-6.07c1.62-1.17,3.19-1.69,4.72-1.55c1.53,0.13,2.74,0.61,3.64,1.42
			s1.37,1.87,1.42,3.17C504.2-332.79,503.64-331.6,502.47-330.53z"/>
		<path class="st0" d="M570.29-380.01c-2.7-0.27-5.44,0.38-8.23,1.96c-2.79,1.57-4.9,4.02-6.34,7.35c-0.9,1.89-1.71,4.76-2.43,8.63
			c-0.72,3.86-1.37,8.29-1.95,13.28c-0.59,4.99-1.03,10.38-1.35,16.18c-0.31,5.8-0.47,11.59-0.47,17.39c0,5.8,0.2,11.39,0.61,16.78
			c0.4,5.39,1.01,10.25,1.82,14.56c0.36,1.89,0.81,3.93,1.35,6.13c0.54,2.2,1.33,4.22,2.36,6.07c1.03,1.84,2.31,3.37,3.84,4.58
			c1.53,1.21,3.51,1.73,5.93,1.55c2.7-0.09,4.81-0.88,6.34-2.36c1.53-1.48,2.7-3.3,3.5-5.46c0.81-2.16,1.33-4.47,1.55-6.94
			c0.22-2.47,0.29-4.65,0.2-6.54c-0.45-12.67-0.31-25.73,0.4-39.17c0.72-13.44,1.71-27.12,2.97-41.06c0-4.13-1.01-7.26-3.03-9.37
			C575.34-378.54,572.98-379.74,570.29-380.01z"/>
		<path class="st0" d="M618.11-287.02c12.28-15.3,25.57-30.32,38.23-45.43c11.22-12.82,1.74-24.4-13.65-19.91
			c-17.49,3.79-29.66,7.85-47.49,7.22c-8.91,0.48-12.24,10.16-7.18,16.87c10.06,13.31,33.93,5.27,43.53,3.28
			c-13.97,14.09-21.42,20.27-33.7,31.71c-14.46,13.46-14.07,30.84,1.76,30.5c17.03-1.56,21.65-21.24,66.94-8.17
			c6.8,1.96,14.87-0.23,18.13-6.67c2.45-4.36,1.42-9.97-1.68-14.56C668.11-314.21,630.49-292.11,618.11-287.02z"/>
		<path class="st0" d="M194.06-350.16c5.7-7.41-1.09-19.67-8.37-12.84S188.52-342.97,194.06-350.16z"/>
		<path class="st0" d="M241.61-345.42c8.7-3.41,9.19-17.43-0.57-15.32C231.28-358.63,233.17-342.11,241.61-345.42z"/>
		<path class="st0" d="M688.68-319.44c-9.1-4.99-20.38-3.52-24.42-2.03c-3.13,1.16-4.75,2.93-4.8,5.29
			c-0.06,2.51,1.8,4.19,3.57,4.93c0.91,0.38,1.94,0.41,2.87,0.06c14.73-5.52,19.27,2.4,23.68,10.06c0.71,1.23,1.37,2.38,2.03,3.38
			c0,0,0,0,0,0c0.96,1.46,2.7,2.74,4.67,2.74c0.37,0,0.76-0.05,1.14-0.15c1.28-0.33,3.48-1.47,3.8-5.44
			c0.03-0.38,0.01-0.77-0.08-1.14C699.35-309.94,695.16-315.89,688.68-319.44z"/>
		<path class="st0" d="M721.35-309.5c-2.58-11.34-9.15-20.17-19.01-25.53c-10.4-5.65-22.88-6.31-27.54-4.6
			c-3.42,1.25-5.2,3.15-5.29,5.63c-0.09,2.65,1.89,4.5,3.78,5.35c0.93,0.42,1.99,0.45,2.95,0.1c17.04-6.36,25,5.13,32.29,18.52
			c0.99,1.82,1.85,3.39,2.69,4.73c0,0,0,0,0,0c1.01,1.6,2.95,3.08,5.1,3.08c0.38,0,0.77-0.05,1.16-0.15
			c1.66-0.43,3.7-1.82,3.96-6.03C721.46-308.77,721.43-309.14,721.35-309.5z"/>
	</g>
	<g>
		<path class="st1" d="M-585.22,260.85c5.48-3.68,9.58,8.9,18.89,9.44c9.45-1.63,24.14-26.74-9.5-35.08
			c-26.84-6.66-32.24,3.03-32.74,10.63c-0.01,0.07-0.01,0.15-0.02,0.22c-0.22,4,0.9,7.36,0.9,7.36l0.03,0.02
			c1.99,10.61,6.18,28.63,6.05,35.57c2.32,56.18-21.68,40.62-35.02,17.97c-1.91-3.24-3.7-5.78-5.42-7.72
			c6.59-3.66,15.41-10.09,14.95-18.15c-0.73-12.79-38.61-9.74-43.85-2.19c-2.76,3.98-2.1,10.7,13.61,19.49
			c-1.25,1.2-2.52,2.65-3.86,4.41c-44.13,57.96-45.53-4.01-28.78-44.07l0,0c0,0,26.07-48.19-28.34-31.32
			c-27.68,8.58-27.78,27.48-14.54,37.86c2.25,1.76,5.48,1.46,7.39-0.66c3.57-3.95,9.17-9.4,14.62-9.12
			c-12.62,22.74-14.49,67.22-8.77,77.87c9.79,27.65,40.48,29.84,53.09,8.04c7.67-11.31,11.16-29.24,17.54-17.1
			c27.57,61.93,77.2,24,68.61-33.33C-580.79,285.02-582.32,272.37-585.22,260.85z"/>
		<path class="st1" d="M-503.89,309.36c-0.32-3.46-0.72-6.72-1.21-9.78c-0.49-3.05-0.97-5.66-1.41-7.82
			c-1.62-8.18-4.3-14.52-8.02-19.01c-3.73-4.49-8.07-7.28-13.01-8.36c-4.94-1.08-10.22-0.5-15.84,1.75
			c-5.62,2.25-11.17,6.11-16.65,11.59c-1.26,1.26-2.54,2.74-3.84,4.45c-1.3,1.71-2.27,3.51-2.9,5.39c-0.63,1.89-0.76,3.71-0.4,5.46
			c0.36,1.75,1.53,3.26,3.51,4.52c3.05,1.98,6.29,1.89,9.71-0.27c0.63-0.45,1.21-0.92,1.75-1.42c0.54-0.49,1.08-1.01,1.62-1.55
			c1.71-2.52,3.66-4.43,5.86-5.73c2.2-1.3,4.29-1.84,6.27-1.62c1.98,0.23,3.68,1.37,5.12,3.44c1.44,2.07,2.29,5.21,2.56,9.44
			c-2.97-0.09-5.91-0.2-8.83-0.34c-2.92-0.14-5.8-0.07-8.63,0.2c-2.83,0.27-5.57,0.77-8.22,1.49c-2.65,0.72-5.24,1.84-7.75,3.37
			c-4.23,2.79-7.26,6.11-9.1,9.98c-1.84,3.86-2.41,8.36-1.69,13.48c0.45,2.96,1.42,5.75,2.9,8.36c1.48,2.61,3.37,4.9,5.66,6.88
			c2.29,1.98,4.9,3.59,7.82,4.85c2.92,1.26,6,2.02,9.24,2.29c4.85,0.45,9.6,0.27,14.22-0.54c4.63-0.81,9.24-2.11,13.82-3.91
			c0.36,0.18,0.67,0.32,0.94,0.41c0.27,0.09,0.49,0.22,0.67,0.4c2.16,1.89,4.38,2.63,6.67,2.23c2.29-0.4,4.16-1.46,5.6-3.17
			c1.26-1.62,2.22-3.77,2.9-6.47c0.67-2.7,1.12-5.68,1.35-8.97c0.22-3.28,0.25-6.74,0.07-10.38
			C-503.33,316.37-503.57,312.82-503.89,309.36z M-533.89,329.24c-1.89,0.45-3.64,0.72-5.26,0.81c-3.32,0.18-5.73-0.2-7.21-1.15
			c-1.48-0.94-2.2-2.02-2.16-3.23c0.04-1.21,0.81-2.41,2.29-3.58c1.48-1.17,3.53-1.89,6.14-2.16c1.89-0.27,3.77-0.2,5.66,0.2
			c1.89,0.4,3.86,1.01,5.93,1.82c0.18,0.99,0.34,1.93,0.47,2.83c0.13,0.9,0.29,1.75,0.47,2.56
			C-529.89,328.16-532,328.79-533.89,329.24z"/>
		<path class="st1" d="M-413.49,280.57c-0.63-4.85-1.26-9.75-1.89-14.7c-0.18-1.8-0.74-3.39-1.68-4.79
			c-0.94-1.39-2.5-2.31-4.65-2.77c-2.25-0.27-4.34,0-6.27,0.81c-1.93,0.81-3.44,2.11-4.52,3.91c-0.27,0.72-0.54,1.44-0.81,2.16
			c-0.27,0.72-0.63,1.58-1.08,2.56c-5.3-12.58-14.47-17.26-27.5-14.02c-5.57,1.44-10.43,3.91-14.56,7.42
			c-10.88,8.81-17.8,20.18-20.76,34.11c-0.72,3.5-0.97,7.03-0.74,10.58c0.22,3.55,1.23,7.03,3.03,10.45
			c1.26,2.61,2.83,4.76,4.72,6.47c1.89,1.71,3.95,2.96,6.2,3.77c2.25,0.81,4.63,1.1,7.15,0.88c2.52-0.22,5.08-1.01,7.68-2.36
			c2.43-1.08,4.97-2.79,7.62-5.12c2.65-2.34,5.26-4.87,7.82-7.62c2.56-2.74,5.01-5.46,7.35-8.16c2.34-2.7,4.4-4.94,6.2-6.74
			c0.45-0.54,0.96-1.1,1.55-1.68c0.58-0.59,1.37-1.37,2.36-2.36c0.36,4.41,0.09,8.92-0.81,13.55c-0.9,4.63-2.34,9.06-4.31,13.28
			c-1.98,4.22-4.43,8.11-7.35,11.66c-2.92,3.55-6.23,6.43-9.91,8.63c-3.69,2.21-7.66,3.55-11.93,4.04
			c-4.27,0.5-8.74-0.11-13.41-1.82c-1.71-0.72-3.4-0.97-5.06-0.74c-1.66,0.22-3.22,1.1-4.65,2.63c-1.35,1.44-2.18,3.05-2.49,4.85
			c-0.32,1.8,0.02,3.59,1.01,5.39c1.62,2.7,3.68,4.97,6.2,6.81c2.52,1.84,5.33,3.31,8.43,4.38c3.1,1.08,6.4,1.78,9.91,2.09
			c3.5,0.31,7.01,0.34,10.52,0.07c6.65-0.54,12.49-1.94,17.53-4.18c5.03-2.25,9.35-5.15,12.94-8.7c3.59-3.55,6.56-7.64,8.9-12.27
			c2.34-4.63,4.16-9.55,5.46-14.76c1.3-5.21,2.18-10.63,2.63-16.25c0.45-5.61,0.58-11.17,0.4-16.65
			C-412.45,290.37-412.86,285.43-413.49,280.57z M-450.7,284.75c-2.16,2.07-4.36,4.12-6.61,6.14c-2.25,2.02-4.54,3.93-6.88,5.73
			c-1.89,1.53-3.62,2.74-5.19,3.64c-1.57,0.9-2.77,1.28-3.57,1.15c-0.81-0.13-1.1-0.94-0.88-2.43c0.22-1.48,1.28-3.85,3.17-7.08
			c1.53-2.61,3.37-5.17,5.53-7.69c2.16-2.52,4.27-4.54,6.34-6.07c1.62-1.17,3.19-1.69,4.72-1.55c1.53,0.13,2.74,0.61,3.64,1.42
			s1.37,1.87,1.42,3.17S-449.53,283.67-450.7,284.75z"/>
		<path class="st1" d="M-322.21,280.57c-0.63-4.85-1.26-9.75-1.89-14.7c-0.18-1.8-0.74-3.39-1.68-4.79
			c-0.94-1.39-2.5-2.31-4.65-2.77c-2.25-0.27-4.34,0-6.27,0.81c-1.93,0.81-3.44,2.11-4.52,3.91c-0.27,0.72-0.54,1.44-0.81,2.16
			c-0.27,0.72-0.63,1.58-1.08,2.56c-5.3-12.58-14.47-17.26-27.5-14.02c-5.57,1.44-10.43,3.91-14.56,7.42
			c-10.88,8.81-17.8,20.18-20.76,34.11c-0.72,3.5-0.97,7.03-0.74,10.58c0.22,3.55,1.23,7.03,3.03,10.45
			c1.26,2.61,2.83,4.76,4.72,6.47c1.89,1.71,3.95,2.96,6.2,3.77c2.25,0.81,4.63,1.1,7.15,0.88c2.52-0.22,5.08-1.01,7.68-2.36
			c2.43-1.08,4.97-2.79,7.62-5.12c2.65-2.34,5.26-4.87,7.82-7.62c2.56-2.74,5.01-5.46,7.35-8.16c2.34-2.7,4.4-4.94,6.2-6.74
			c0.45-0.54,0.96-1.1,1.55-1.68c0.58-0.59,1.37-1.37,2.36-2.36c0.36,4.41,0.09,8.92-0.81,13.55c-0.9,4.63-2.34,9.06-4.31,13.28
			c-1.98,4.22-4.43,8.11-7.35,11.66c-2.92,3.55-6.23,6.43-9.91,8.63c-3.69,2.21-7.66,3.55-11.93,4.04
			c-4.27,0.5-8.74-0.11-13.41-1.82c-1.71-0.72-3.4-0.97-5.06-0.74c-1.66,0.22-3.22,1.1-4.65,2.63c-1.35,1.44-2.18,3.05-2.49,4.85
			c-0.32,1.8,0.02,3.59,1.01,5.39c1.62,2.7,3.68,4.97,6.2,6.81c2.52,1.84,5.33,3.31,8.43,4.38c3.1,1.08,6.4,1.78,9.91,2.09
			c3.5,0.31,7.01,0.34,10.52,0.07c6.65-0.54,12.49-1.94,17.53-4.18c5.03-2.25,9.35-5.15,12.94-8.7c3.59-3.55,6.56-7.64,8.9-12.27
			c2.34-4.63,4.16-9.55,5.46-14.76c1.3-5.21,2.18-10.63,2.63-16.25c0.45-5.61,0.58-11.17,0.4-16.65
			C-321.18,290.37-321.58,285.43-322.21,280.57z M-359.42,284.75c-2.16,2.07-4.36,4.12-6.61,6.14c-2.25,2.02-4.54,3.93-6.88,5.73
			c-1.89,1.53-3.62,2.74-5.19,3.64c-1.57,0.9-2.77,1.28-3.57,1.15c-0.81-0.13-1.1-0.94-0.88-2.43c0.22-1.48,1.28-3.85,3.17-7.08
			c1.53-2.61,3.37-5.17,5.53-7.69c2.16-2.52,4.27-4.54,6.34-6.07c1.62-1.17,3.19-1.69,4.72-1.55c1.53,0.13,2.74,0.61,3.64,1.42
			s1.37,1.87,1.42,3.17C-357.69,282.48-358.25,283.67-359.42,284.75z"/>
		<path class="st1" d="M-291.6,235.27c-2.7-0.27-5.44,0.38-8.23,1.96c-2.79,1.57-4.9,4.02-6.34,7.35c-0.9,1.89-1.71,4.76-2.43,8.63
			c-0.72,3.86-1.37,8.29-1.95,13.28c-0.59,4.99-1.03,10.38-1.35,16.18c-0.31,5.8-0.47,11.59-0.47,17.39c0,5.8,0.2,11.39,0.61,16.78
			c0.4,5.39,1.01,10.25,1.82,14.56c0.36,1.89,0.81,3.93,1.35,6.13c0.54,2.2,1.33,4.22,2.36,6.07c1.03,1.84,2.31,3.37,3.84,4.58
			c1.53,1.21,3.51,1.73,5.93,1.55c2.7-0.09,4.81-0.88,6.34-2.36c1.53-1.48,2.7-3.3,3.5-5.46c0.81-2.16,1.33-4.47,1.55-6.94
			c0.22-2.47,0.29-4.65,0.2-6.54c-0.45-12.67-0.31-25.73,0.4-39.17c0.72-13.44,1.71-27.12,2.97-41.06c0-4.13-1.01-7.26-3.03-9.37
			C-286.55,236.73-288.91,235.54-291.6,235.27z"/>
		<path class="st1" d="M-243.78,328.25c12.28-15.3,25.57-30.32,38.23-45.43c11.22-12.82,1.74-24.4-13.65-19.91
			c-17.49,3.79-29.66,7.85-47.49,7.22c-8.91,0.48-12.24,10.16-7.18,16.87c10.06,13.31,33.93,5.27,43.53,3.28
			c-13.97,14.09-21.42,20.27-33.7,31.71c-14.46,13.46-14.07,30.84,1.76,30.5c17.03-1.56,21.65-21.24,66.94-8.17
			c6.8,1.96,14.87-0.23,18.13-6.67c2.45-4.36,1.42-9.97-1.68-14.56C-193.78,301.06-231.4,323.16-243.78,328.25z"/>
		<path class="st1" d="M-667.83,265.12c5.7-7.41-1.09-19.67-8.37-12.84S-673.37,272.31-667.83,265.12z"/>
		<path class="st1" d="M-620.28,269.85c8.7-3.41,9.19-17.43-0.57-15.32C-630.61,256.65-628.72,273.17-620.28,269.85z"/>
		<path class="st1" d="M-173.21,295.84c-9.1-4.99-20.38-3.52-24.42-2.03c-3.13,1.16-4.75,2.93-4.8,5.29
			c-0.06,2.51,1.8,4.19,3.57,4.93c0.91,0.38,1.94,0.41,2.87,0.06c14.73-5.52,19.27,2.4,23.68,10.06c0.71,1.23,1.37,2.38,2.03,3.38
			c0,0,0,0,0,0c0.96,1.46,2.7,2.74,4.67,2.74c0.37,0,0.76-0.05,1.14-0.15c1.28-0.33,3.48-1.47,3.8-5.44
			c0.03-0.38,0.01-0.77-0.08-1.14C-162.54,305.34-166.73,299.39-173.21,295.84z"/>
		<path class="st1" d="M-140.54,305.77c-2.58-11.34-9.15-20.17-19.01-25.53c-10.4-5.65-22.88-6.31-27.54-4.6
			c-3.42,1.25-5.2,3.15-5.29,5.63c-0.09,2.65,1.89,4.5,3.78,5.35c0.93,0.42,1.99,0.45,2.95,0.1c17.04-6.36,25,5.13,32.29,18.52
			c0.99,1.82,1.85,3.39,2.69,4.73c0,0,0,0,0,0c1.01,1.6,2.95,3.08,5.1,3.08c0.38,0,0.77-0.05,1.16-0.15
			c1.66-0.43,3.7-1.82,3.96-6.03C-140.43,306.5-140.46,306.13-140.54,305.77z"/>
	</g>
</g>
</svg>
